<?xml version="1.0" encoding="UTF-8"?>
<svg width="624px" height="172px" viewBox="0 0 624 172" version="1.1" xmlns="http://www.w3.org/2000/svg" xmlns:xlink="http://www.w3.org/1999/xlink">
    <!-- Generator: Sketch 48.2 (47327) - http://www.bohemiancoding.com/sketch -->
    <title>Group</title>
    <desc>Created with Sketch.</desc>
    <defs></defs>
    <g id="Artboard-Copy-4" stroke="none" stroke-width="1" fill="none" fill-rule="evenodd" transform="translate(-119.000000, -119.000000)">
        <g id="Group" transform="translate(118.000000, 117.000000)">
            <g id="Group-6">
                <g id="Group-5" transform="translate(0.000000, 14.000000)">
                    <path d="M142.999996,-3.56184459e-06 L201.016135,1.20576103e-05 C225.035596,1.28647196e-05 244.507216,19.4716335 244.507216,43.4910946 C244.507216,52.8489744 242.00481,62.0769664 237,71.1750705 C243.242816,78.5937388 246.960033,85.5054483 248.151653,91.9101992 C248.410211,93.2999092 248.625982,95.2683294 248.798963,97.8154598 C250.557736,123.713191 230.989244,146.133217 205.091513,147.89199 C204.031526,147.963976 202.969402,148 201.906973,148 L142.999996,148 C136.924863,148 131.999996,143.075132 131.999996,137 L131.999995,10.9999961 C131.999995,4.92486382 136.924863,-3.93146996e-06 142.999995,-3.93146996e-06 Z M168.036107,38.0044822 L168.036107,110.519305 C168.036107,111.623875 168.931537,112.519305 170.036107,112.519305 L202.373061,112.519305 C208.448193,112.519305 213.373061,107.594437 213.373061,101.519305 L213.373061,98.3417736 C213.373061,92.2666414 208.448193,87.3417736 202.373061,87.3417736 L193.202161,87.3417736 C187.679313,87.3417736 183.202161,82.8646211 183.202161,77.3417736 L183.202161,69.2728137 C183.202161,63.7499662 187.679313,59.2728137 193.202161,59.2728137 L200.640346,59.2728137 C205.610908,59.2728137 209.640346,55.2433765 209.640346,50.2728137 L209.640346,45.0044822 C209.640346,40.0339195 205.610908,36.0044822 200.640346,36.0044822 L170.036107,36.0044822 C168.931537,36.0044822 168.036107,36.8999127 168.036107,38.0044822 Z" id="Combined-Shape" fill="#202D3E"></path>
                    <path d="M102.515001,120.887642 L96.8067893,130.654543 C94.8560608,133.992291 90.5689034,135.116692 87.2311554,133.165964 C87.2131817,133.155459 87.1952549,133.144874 87.1773757,133.13421 L6.36516543,84.9315638 C1.1476913,81.8194591 -0.559047851,75.0670013 2.55305683,69.8495272 C3.50575556,68.2523184 4.84785813,66.9227317 6.45392268,65.9850391 L87.3625586,18.746944 C90.636185,16.8356539 94.8364024,17.877496 96.8373341,21.0971127 L102.25378,29.812493 C104.294438,33.0960308 103.286884,37.4121439 100.003346,39.4528014 C99.9743474,39.4708236 99.9452171,39.4886334 99.9159577,39.5062294 L43.1083066,73.6691281 C42.1617223,74.2383836 41.8558367,75.4672146 42.4250922,76.4137989 C42.5935758,76.6939613 42.828169,76.9285507 43.108334,77.0970298 L100.078927,111.356678 C103.362726,113.331414 104.448491,117.579389 102.515001,120.887642 Z" id="Path-2" fill="#C1E1F8"></path>
                    <path d="M623.404292,120.887642 L617.69608,130.654543 C615.745352,133.992291 611.458194,135.116692 608.120446,133.165964 C608.102473,133.155459 608.084546,133.144874 608.066667,133.13421 L527.254456,84.9315638 C522.036982,81.8194591 520.330243,75.0670013 523.442348,69.8495272 C524.395046,68.2523184 525.737149,66.9227317 527.343214,65.9850391 L608.251849,18.746944 C611.525476,16.8356539 615.725693,17.877496 617.726625,21.0971127 L623.143071,29.812493 C625.183729,33.0960308 624.176175,37.4121439 620.892637,39.4528014 C620.863638,39.4708236 620.834508,39.4886334 620.805249,39.5062294 L563.997598,73.6691281 C563.051013,74.2383836 562.745128,75.4672146 563.314383,76.4137989 C563.482867,76.6939613 563.71746,76.9285507 563.997625,77.0970298 L620.968217,111.356678 C624.252017,113.331414 625.337782,117.579389 623.404292,120.887642 Z" id="Path-2" fill="#C1E1F8" transform="translate(573.124774, 75.957328) scale(-1, 1) translate(-573.124774, -75.957328) "></path>
                    <g id="Group-4" transform="translate(276.000000, 2.000000)" fill="#202D3E">
                        <g id="Group-3">
                            <g id="Group-2" transform="translate(0.398105, 0.310345)">
                                <rect id="Rectangle-5" x="97.1329114" y="79.1724138" width="17.9177215" height="22.6206897"></rect>
                                <path d="M115.943306,16.3292591 C115.939058,16.3274876 115.934809,16.325719 115.930558,16.3239533 L94.9328685,40.8301035 C88.3822206,35.3469623 79.9407359,32.045977 70.7278481,32.045977 C49.8948284,32.045977 33.0063291,48.9253566 33.0063291,69.7471264 C33.0063291,90.5688963 49.8948284,107.448276 70.7278481,107.448276 C91.5608678,107.448276 108.449367,90.5688963 108.449367,69.7471264 C108.449367,65.1049052 107.609893,60.6586478 106.074391,56.5517241 L124.481013,56.5517241 L124.481013,112.315979 C124.407585,114.859413 124.304516,116.288845 124.171805,116.604275 C124.039093,116.919705 123.666912,117.46796 123.055261,118.249042 C110.118192,132.459413 91.4652598,141.37931 70.7278481,141.37931 C31.6659362,141.37931 0,109.730474 0,70.6896552 C0,31.6488367 31.6659362,0 70.7278481,0 C87.9229103,0 103.684808,6.13279234 115.943306,16.3292591 Z" id="Combined-Shape"></path>
                                <rect id="Rectangle-3" x="75.443038" y="55.6091954" width="62.2405063" height="26.3908046" rx="9"></rect>
                            </g>
                        </g>
                        <path d="M95.3305758,41.1409123 C94.881094,31.5600125 95.6210328,25.6436965 97.5503922,23.3919644 C99.4797516,21.1402322 105.739175,18.8876768 116.328662,16.6342981 L117.726655,17.8443049 C121.634504,21.2266707 122.078699,27.1294457 118.721052,31.0585535 L110.005201,41.2578167 C106.687212,45.1405174 100.876098,45.6635181 96.9181574,42.4356516 L95.3305758,41.1409123 Z" id="Path-5"></path>
                    </g>
                </g>
                <rect id="Rectangle-6" fill="#1FA2F9" transform="translate(465.000000, 88.000000) rotate(26.000000) translate(-465.000000, -88.000000) " x="453" y="-4" width="24" height="184" rx="5.76"></rect>
            </g>
            <path d="M339.149902,4.36443691 L351.869903,4.36443691 C356.089358,4.36443691 359.509902,7.78498136 359.509902,12.0044368 L359.509902,19.258648 L331.509902,19.258648 L331.509902,12.0044368 C331.509902,7.78498136 334.930447,4.36443691 339.149902,4.36443691 Z" id="Path-4" fill="#202D3E"></path>
            <path d="M339.149902,153.364437 L351.869903,153.364437 C356.089358,153.364437 359.509902,156.784981 359.509902,161.004437 L359.509902,168.258648 L331.509902,168.258648 L331.509902,161.004437 C331.509902,156.784981 334.930447,153.364437 339.149902,153.364437 Z" id="Path-4" fill="#202D3E" transform="translate(345.509902, 160.811542) rotate(180.000000) translate(-345.509902, -160.811542) "></path>
            <path d="M266.149902,79.3644369 L278.869903,79.3644369 C283.089358,79.3644369 286.509902,82.7849814 286.509902,87.0044368 L286.509902,94.258648 L258.509902,94.258648 L258.509902,87.0044368 C258.509902,82.7849814 261.930447,79.3644369 266.149902,79.3644369 Z" id="Path-4" fill="#202D3E" transform="translate(272.509902, 86.811542) rotate(270.000000) translate(-272.509902, -86.811542) "></path>
            <path d="M286.149902,27.3644369 L298.869903,27.3644369 C303.089358,27.3644369 306.509902,30.7849814 306.509902,35.0044368 L306.509902,42.258648 L278.509902,42.258648 L278.509902,35.0044368 C278.509902,30.7849814 281.930447,27.3644369 286.149902,27.3644369 Z" id="Path-4" fill="#202D3E" transform="translate(292.509902, 34.811542) rotate(-46.000000) translate(-292.509902, -34.811542) "></path>
            <path d="M286.149902,130.364437 L298.869903,130.364437 C303.089358,130.364437 306.509902,133.784981 306.509902,138.004437 L306.509902,145.258648 L278.509902,145.258648 L278.509902,138.004437 C278.509902,133.784981 281.930447,130.364437 286.149902,130.364437 Z" id="Path-4" fill="#202D3E" transform="translate(292.509902, 137.811542) rotate(-133.000000) translate(-292.509902, -137.811542) "></path>
        </g>
    </g>
</svg>